<mxfile host="app.diagrams.net" modified="2024-06-16T16:18:22.801Z" agent="Mozilla/5.0 (Windows NT 10.0; Win64; x64) AppleWebKit/537.36 (KHTML, like Gecko) Chrome/125.0.0.0 Safari/537.36" etag="8kDruAuCxgJ2nlPwQbcA" version="24.5.4" type="github">
  <diagram name="Page-1" id="LEZ5n5fntuWUsPVQmiIG">
    <mxGraphModel dx="1050" dy="565" grid="1" gridSize="10" guides="1" tooltips="1" connect="1" arrows="1" fold="1" page="1" pageScale="1" pageWidth="850" pageHeight="1100" math="0" shadow="0">
      <root>
        <mxCell id="0" />
        <mxCell id="1" parent="0" />
        <mxCell id="Hb-jmeLNu6FLRn5VgUYX-1" value="&lt;font style=&quot;font-size: 22px;&quot;&gt;Homepage&lt;/font&gt;" style="rounded=1;whiteSpace=wrap;html=1;fillColor=#f8cecc;strokeColor=#b85450;" parent="1" vertex="1">
          <mxGeometry x="320" y="120" width="200" height="80" as="geometry" />
        </mxCell>
        <mxCell id="1kTSaBlXqIQbw2CaoR4M-1" value="" style="endArrow=none;html=1;rounded=0;" edge="1" parent="1">
          <mxGeometry width="50" height="50" relative="1" as="geometry">
            <mxPoint x="80" y="280" as="sourcePoint" />
            <mxPoint x="760" y="280" as="targetPoint" />
          </mxGeometry>
        </mxCell>
      </root>
    </mxGraphModel>
  </diagram>
</mxfile>
